<mxfile host="app.diagrams.net" modified="2024-01-26T23:35:07.489Z" agent="Mozilla/5.0 (Windows NT 10.0; Win64; x64) AppleWebKit/537.36 (KHTML, like Gecko) Chrome/120.0.0.0 Safari/537.36" etag="qa87t4o24FOetPNBnw1X" version="23.0.2" type="google">
  <diagram name="‫صفحه - 1‬" id="dy0mTYAAAkJb81HxKsFI">
    <mxGraphModel grid="1" page="1" gridSize="10" guides="1" tooltips="1" connect="1" arrows="1" fold="1" pageScale="1" pageWidth="827" pageHeight="1169" math="0" shadow="0">
      <root>
        <mxCell id="0" />
        <mxCell id="1" parent="0" />
        <mxCell id="E_Ft9SDAZB8_3qufMrzH-1" value="جواب دادن به نامه" style="swimlane;html=1;childLayout=stackLayout;resizeParent=1;resizeParentMax=0;horizontal=0;startSize=20;horizontalStack=0;" vertex="1" parent="1">
          <mxGeometry x="60" y="320" width="1480" height="320" as="geometry" />
        </mxCell>
        <mxCell id="CMnlYeLbHTr7uTrjMdze-40" value="کاربر" style="swimlane;html=1;startSize=20;horizontal=0;" vertex="1" parent="E_Ft9SDAZB8_3qufMrzH-1">
          <mxGeometry x="20" width="1460" height="177" as="geometry">
            <mxRectangle x="20" width="490" height="30" as="alternateBounds" />
          </mxGeometry>
        </mxCell>
        <mxCell id="CMnlYeLbHTr7uTrjMdze-41" style="edgeStyle=orthogonalEdgeStyle;rounded=0;orthogonalLoop=1;jettySize=auto;html=1;" edge="1" parent="CMnlYeLbHTr7uTrjMdze-40" target="CMnlYeLbHTr7uTrjMdze-43">
          <mxGeometry relative="1" as="geometry">
            <mxPoint x="110" y="92.5" as="targetPoint" />
            <mxPoint x="74.999884659303" y="92.55882352941171" as="sourcePoint" />
          </mxGeometry>
        </mxCell>
        <mxCell id="CMnlYeLbHTr7uTrjMdze-42" value="" style="ellipse;fillColor=strokeColor;html=1;" vertex="1" parent="CMnlYeLbHTr7uTrjMdze-40">
          <mxGeometry x="45" y="77.5" width="30" height="30" as="geometry" />
        </mxCell>
        <mxCell id="CMnlYeLbHTr7uTrjMdze-43" value="&lt;font style=&quot;font-size: 14px;&quot;&gt;درخواست پاسخ به نامه&lt;/font&gt;" style="html=1;align=center;verticalAlign=top;rounded=1;absoluteArcSize=1;arcSize=13;dashed=0;whiteSpace=wrap;" vertex="1" parent="CMnlYeLbHTr7uTrjMdze-40">
          <mxGeometry x="108" y="72.5" width="140" height="40" as="geometry" />
        </mxCell>
        <mxCell id="CMnlYeLbHTr7uTrjMdze-48" value="&lt;span style=&quot;font-size: 14px;&quot;&gt;وارد کردن پاسخ&lt;/span&gt;" style="html=1;align=center;verticalAlign=top;rounded=1;absoluteArcSize=1;arcSize=13;dashed=0;whiteSpace=wrap;" vertex="1" parent="CMnlYeLbHTr7uTrjMdze-40">
          <mxGeometry x="371" y="30" width="140" height="40" as="geometry" />
        </mxCell>
        <mxCell id="CMnlYeLbHTr7uTrjMdze-58" value="تایید پاسخ نامه توسط کاربر" style="shape=mxgraph.uml25.action;html=1;align=center;verticalAlign=middle;absoluteArcSize=1;arcSize=10;dashed=0;spacingRight=10;whiteSpace=wrap;" vertex="1" parent="CMnlYeLbHTr7uTrjMdze-40">
          <mxGeometry x="601" y="69.5" width="146" height="43" as="geometry" />
        </mxCell>
        <mxCell id="IXtUpjZNSrnMkwO4q203-8" value="" style="edgeStyle=orthogonalEdgeStyle;rounded=0;orthogonalLoop=1;jettySize=auto;html=1;entryX=0;entryY=0.5;entryDx=0;entryDy=0;" edge="1" parent="CMnlYeLbHTr7uTrjMdze-40" source="IXtUpjZNSrnMkwO4q203-5" target="CMnlYeLbHTr7uTrjMdze-48">
          <mxGeometry relative="1" as="geometry">
            <Array as="points">
              <mxPoint x="349" y="50.5" />
            </Array>
          </mxGeometry>
        </mxCell>
        <mxCell id="IXtUpjZNSrnMkwO4q203-10" value="" style="edgeStyle=orthogonalEdgeStyle;rounded=0;orthogonalLoop=1;jettySize=auto;html=1;" edge="1" parent="CMnlYeLbHTr7uTrjMdze-40" source="IXtUpjZNSrnMkwO4q203-5" target="IXtUpjZNSrnMkwO4q203-6">
          <mxGeometry relative="1" as="geometry">
            <Array as="points">
              <mxPoint x="341" y="122.5" />
              <mxPoint x="341" y="122.5" />
            </Array>
          </mxGeometry>
        </mxCell>
        <mxCell id="IXtUpjZNSrnMkwO4q203-5" value="" style="html=1;points=[];perimeter=orthogonalPerimeter;fillColor=strokeColor;" vertex="1" parent="CMnlYeLbHTr7uTrjMdze-40">
          <mxGeometry x="322" y="32.5" width="5" height="120" as="geometry" />
        </mxCell>
        <mxCell id="IXtUpjZNSrnMkwO4q203-6" value="&lt;font style=&quot;font-size: 14px;&quot;&gt;وارد کردن دریافت کنندگان رونوشت&lt;/font&gt;" style="html=1;align=center;verticalAlign=top;rounded=1;absoluteArcSize=1;arcSize=13;dashed=0;whiteSpace=wrap;" vertex="1" parent="CMnlYeLbHTr7uTrjMdze-40">
          <mxGeometry x="371" y="102.5" width="140" height="40" as="geometry" />
        </mxCell>
        <mxCell id="IXtUpjZNSrnMkwO4q203-12" value="" style="edgeStyle=orthogonalEdgeStyle;rounded=0;orthogonalLoop=1;jettySize=auto;html=1;entryX=0;entryY=0.5;entryDx=0;entryDy=0;" edge="1" parent="CMnlYeLbHTr7uTrjMdze-40">
          <mxGeometry relative="1" as="geometry">
            <mxPoint x="555" y="49.900000000000006" as="targetPoint" />
            <Array as="points">
              <mxPoint x="533" y="49.900000000000006" />
            </Array>
            <mxPoint x="511.0000000000001" y="49.900000000000006" as="sourcePoint" />
          </mxGeometry>
        </mxCell>
        <mxCell id="IXtUpjZNSrnMkwO4q203-13" value="" style="edgeStyle=orthogonalEdgeStyle;rounded=0;orthogonalLoop=1;jettySize=auto;html=1;" edge="1" parent="CMnlYeLbHTr7uTrjMdze-40">
          <mxGeometry relative="1" as="geometry">
            <mxPoint x="555" y="122.36000000000001" as="targetPoint" />
            <Array as="points">
              <mxPoint x="525" y="122.36000000000001" />
              <mxPoint x="525" y="122.36000000000001" />
            </Array>
            <mxPoint x="511" y="122.36000000000001" as="sourcePoint" />
          </mxGeometry>
        </mxCell>
        <mxCell id="IXtUpjZNSrnMkwO4q203-15" value="" style="edgeStyle=orthogonalEdgeStyle;rounded=0;orthogonalLoop=1;jettySize=auto;html=1;" edge="1" parent="CMnlYeLbHTr7uTrjMdze-40" source="IXtUpjZNSrnMkwO4q203-14" target="CMnlYeLbHTr7uTrjMdze-58">
          <mxGeometry relative="1" as="geometry" />
        </mxCell>
        <mxCell id="IXtUpjZNSrnMkwO4q203-14" value="" style="html=1;points=[];perimeter=orthogonalPerimeter;fillColor=strokeColor;" vertex="1" parent="CMnlYeLbHTr7uTrjMdze-40">
          <mxGeometry x="551" y="31" width="5" height="120" as="geometry" />
        </mxCell>
        <mxCell id="CMnlYeLbHTr7uTrjMdze-73" style="edgeStyle=orthogonalEdgeStyle;rounded=0;orthogonalLoop=1;jettySize=auto;html=1;" edge="1" parent="E_Ft9SDAZB8_3qufMrzH-1" source="CMnlYeLbHTr7uTrjMdze-43" target="CMnlYeLbHTr7uTrjMdze-61">
          <mxGeometry relative="1" as="geometry">
            <Array as="points" />
          </mxGeometry>
        </mxCell>
        <mxCell id="CMnlYeLbHTr7uTrjMdze-59" value="سامانه" style="swimlane;html=1;startSize=20;horizontal=0;" vertex="1" parent="E_Ft9SDAZB8_3qufMrzH-1">
          <mxGeometry x="20" y="177" width="1460" height="143" as="geometry" />
        </mxCell>
        <mxCell id="CMnlYeLbHTr7uTrjMdze-61" value="&lt;font style=&quot;font-size: 14px;&quot;&gt;نمایش اطلاعات نامه ودرخواست پاسخ&lt;/font&gt;" style="html=1;align=center;verticalAlign=top;rounded=1;absoluteArcSize=1;arcSize=13;dashed=0;whiteSpace=wrap;" vertex="1" parent="CMnlYeLbHTr7uTrjMdze-59">
          <mxGeometry x="108" y="30" width="140" height="40" as="geometry" />
        </mxCell>
        <mxCell id="CMnlYeLbHTr7uTrjMdze-63" style="edgeStyle=orthogonalEdgeStyle;rounded=0;orthogonalLoop=1;jettySize=auto;html=1;exitX=1;exitY=0.5;exitDx=0;exitDy=0;" edge="1" parent="CMnlYeLbHTr7uTrjMdze-59" source="CMnlYeLbHTr7uTrjMdze-65" target="CMnlYeLbHTr7uTrjMdze-72">
          <mxGeometry relative="1" as="geometry">
            <mxPoint x="758.6199999999999" y="88" as="sourcePoint" />
            <mxPoint x="1015" y="88" as="targetPoint" />
          </mxGeometry>
        </mxCell>
        <mxCell id="CMnlYeLbHTr7uTrjMdze-64" value="&lt;span style=&quot;font-size: 12px;&quot;&gt;[اطلاعات وارد شده صحیح است]&lt;/span&gt;" style="edgeLabel;html=1;align=center;verticalAlign=middle;resizable=0;points=[];" connectable="0" vertex="1" parent="CMnlYeLbHTr7uTrjMdze-63">
          <mxGeometry x="-0.362" y="1" relative="1" as="geometry">
            <mxPoint x="18" y="-8" as="offset" />
          </mxGeometry>
        </mxCell>
        <mxCell id="CMnlYeLbHTr7uTrjMdze-65" value="" style="rhombus;" vertex="1" parent="CMnlYeLbHTr7uTrjMdze-59">
          <mxGeometry x="1015" y="15" width="30" height="30" as="geometry" />
        </mxCell>
        <mxCell id="IXtUpjZNSrnMkwO4q203-21" style="edgeStyle=orthogonalEdgeStyle;rounded=0;orthogonalLoop=1;jettySize=auto;html=1;entryX=0.5;entryY=1;entryDx=0;entryDy=0;" edge="1" parent="CMnlYeLbHTr7uTrjMdze-59" source="CMnlYeLbHTr7uTrjMdze-67" target="IXtUpjZNSrnMkwO4q203-18">
          <mxGeometry relative="1" as="geometry">
            <mxPoint x="1380" y="84" as="targetPoint" />
          </mxGeometry>
        </mxCell>
        <mxCell id="CMnlYeLbHTr7uTrjMdze-67" value="&lt;font style=&quot;font-size: 14px;&quot;&gt;اعلام نامعتبر بودن اطلاعات&lt;/font&gt;" style="html=1;align=center;verticalAlign=top;rounded=1;absoluteArcSize=1;arcSize=13;dashed=0;whiteSpace=wrap;" vertex="1" parent="CMnlYeLbHTr7uTrjMdze-59">
          <mxGeometry x="960" y="88" width="140" height="40" as="geometry" />
        </mxCell>
        <mxCell id="CMnlYeLbHTr7uTrjMdze-68" style="edgeStyle=orthogonalEdgeStyle;rounded=0;orthogonalLoop=1;jettySize=auto;html=1;" edge="1" parent="CMnlYeLbHTr7uTrjMdze-59" source="CMnlYeLbHTr7uTrjMdze-65" target="CMnlYeLbHTr7uTrjMdze-67">
          <mxGeometry relative="1" as="geometry" />
        </mxCell>
        <mxCell id="CMnlYeLbHTr7uTrjMdze-69" value="&lt;font style=&quot;font-size: 12px;&quot;&gt;وگرنه&lt;/font&gt;" style="edgeLabel;html=1;align=center;verticalAlign=middle;resizable=0;points=[];" connectable="0" vertex="1" parent="CMnlYeLbHTr7uTrjMdze-68">
          <mxGeometry x="-0.2205" y="-2" relative="1" as="geometry">
            <mxPoint x="-23" y="-17" as="offset" />
          </mxGeometry>
        </mxCell>
        <mxCell id="IXtUpjZNSrnMkwO4q203-17" style="edgeStyle=orthogonalEdgeStyle;rounded=0;orthogonalLoop=1;jettySize=auto;html=1;entryX=0;entryY=0.5;entryDx=0;entryDy=0;" edge="1" parent="CMnlYeLbHTr7uTrjMdze-59" source="CMnlYeLbHTr7uTrjMdze-70" target="CMnlYeLbHTr7uTrjMdze-65">
          <mxGeometry relative="1" as="geometry" />
        </mxCell>
        <mxCell id="CMnlYeLbHTr7uTrjMdze-70" value="بررسی اطلاعات" style="shape=mxgraph.uml25.action;html=1;align=center;verticalAlign=middle;absoluteArcSize=1;arcSize=10;dashed=0;spacingLeft=10;flipH=1;whiteSpace=wrap;" vertex="1" parent="CMnlYeLbHTr7uTrjMdze-59">
          <mxGeometry x="800" y="5" width="150" height="50" as="geometry" />
        </mxCell>
        <mxCell id="CMnlYeLbHTr7uTrjMdze-72" value="&lt;font style=&quot;font-size: 14px;&quot;&gt;ارسال پاسخ نامه به فرستنده نامه&lt;/font&gt;" style="html=1;align=center;verticalAlign=top;rounded=1;absoluteArcSize=1;arcSize=13;dashed=0;whiteSpace=wrap;" vertex="1" parent="CMnlYeLbHTr7uTrjMdze-59">
          <mxGeometry x="1190" y="10" width="140" height="40" as="geometry" />
        </mxCell>
        <mxCell id="CMnlYeLbHTr7uTrjMdze-60" value="" style="ellipse;html=1;shape=endState;fillColor=strokeColor;" vertex="1" parent="CMnlYeLbHTr7uTrjMdze-59">
          <mxGeometry x="1400" y="15" width="30" height="30" as="geometry" />
        </mxCell>
        <mxCell id="CMnlYeLbHTr7uTrjMdze-71" style="edgeStyle=orthogonalEdgeStyle;rounded=0;orthogonalLoop=1;jettySize=auto;html=1;" edge="1" parent="CMnlYeLbHTr7uTrjMdze-59" source="IXtUpjZNSrnMkwO4q203-18" target="CMnlYeLbHTr7uTrjMdze-60">
          <mxGeometry relative="1" as="geometry" />
        </mxCell>
        <mxCell id="IXtUpjZNSrnMkwO4q203-20" value="" style="edgeStyle=orthogonalEdgeStyle;rounded=0;orthogonalLoop=1;jettySize=auto;html=1;" edge="1" parent="CMnlYeLbHTr7uTrjMdze-59" source="CMnlYeLbHTr7uTrjMdze-72" target="IXtUpjZNSrnMkwO4q203-18">
          <mxGeometry relative="1" as="geometry">
            <mxPoint x="1410" y="487" as="sourcePoint" />
            <mxPoint x="1480" y="487" as="targetPoint" />
          </mxGeometry>
        </mxCell>
        <mxCell id="IXtUpjZNSrnMkwO4q203-18" value="" style="rhombus;" vertex="1" parent="CMnlYeLbHTr7uTrjMdze-59">
          <mxGeometry x="1350" y="15" width="30" height="30" as="geometry" />
        </mxCell>
        <mxCell id="IXtUpjZNSrnMkwO4q203-22" style="edgeStyle=orthogonalEdgeStyle;rounded=0;orthogonalLoop=1;jettySize=auto;html=1;entryX=1;entryY=0.46;entryDx=0;entryDy=0;entryPerimeter=0;" edge="1" parent="E_Ft9SDAZB8_3qufMrzH-1" source="CMnlYeLbHTr7uTrjMdze-58" target="CMnlYeLbHTr7uTrjMdze-70">
          <mxGeometry relative="1" as="geometry">
            <mxPoint x="830" y="290" as="targetPoint" />
          </mxGeometry>
        </mxCell>
        <mxCell id="IXtUpjZNSrnMkwO4q203-24" style="edgeStyle=orthogonalEdgeStyle;rounded=0;orthogonalLoop=1;jettySize=auto;html=1;entryX=-0.207;entryY=0.48;entryDx=0;entryDy=0;entryPerimeter=0;" edge="1" parent="E_Ft9SDAZB8_3qufMrzH-1" source="CMnlYeLbHTr7uTrjMdze-61" target="IXtUpjZNSrnMkwO4q203-5">
          <mxGeometry relative="1" as="geometry">
            <mxPoint x="310" y="140" as="targetPoint" />
          </mxGeometry>
        </mxCell>
      </root>
    </mxGraphModel>
  </diagram>
</mxfile>
